<svg width="899" height="899" viewBox="0 0 899 899" fill="none" xmlns="http://www.w3.org/2000/svg">
<rect width="899" height="899" fill="white"/>
<circle cx="449.5" cy="444.5" r="291.5" fill="#FFBF00"/>
<circle cx="200" cy="277" r="54" fill="#FF5420"/>
<path d="M707.756 203.2C727.49 203.2 742.69 207.467 753.356 216C764.556 224.533 770.156 236.267 770.156 251.2C770.156 258.667 769.09 265.867 766.956 272.8L746.156 347.2C742.423 361.067 736.29 370.933 727.756 376.8C719.223 382.667 708.023 385.6 694.156 385.6C680.823 385.6 670.156 382.933 662.156 377.6C654.156 371.733 648.29 362.4 644.556 349.6L631.756 304C629.623 296 626.956 290.667 623.756 288C620.556 285.333 613.89 284 603.756 284H523.756L478.956 442.4H494.156C501.623 442.4 508.023 441.333 513.356 439.2C519.223 437.067 525.356 433.067 531.756 427.2L556.556 406.4C565.623 398.4 573.623 392.8 580.556 389.6C588.023 385.867 595.756 384 603.756 384C613.89 384 622.156 386.933 628.556 392.8C635.49 398.667 638.956 406.933 638.956 417.6C638.956 421.867 638.156 426.933 636.556 432.8L601.356 554.4C593.356 580.533 578.956 593.6 558.156 593.6C541.09 593.6 527.756 584.8 518.156 567.2L503.756 540C500.023 532.533 496.556 527.733 493.356 525.6C490.156 523.467 485.356 522.4 478.956 522.4H455.756L422.156 641.6C421.09 644.8 420.556 649.067 420.556 654.4C420.556 661.867 422.156 668 425.356 672.8C429.09 677.6 434.423 682.667 441.356 688C447.223 692.8 451.223 696.8 453.356 700C455.49 702.667 456.556 706.133 456.556 710.4C456.556 720 452.29 726.667 443.756 730.4C435.223 734.133 422.69 736 406.156 736H205.356C191.49 736 181.09 733.6 174.156 728.8C167.223 723.467 164.823 716.267 166.956 707.2C168.023 702.4 170.156 698.667 173.356 696C176.023 692.8 180.29 689.333 186.156 685.6C195.223 680.267 202.423 674.667 207.756 668.8C213.09 662.933 217.356 653.867 220.556 641.6L318.956 296.8C321.09 289.867 322.156 283.467 322.156 277.6C322.156 271.2 321.09 265.867 318.956 261.6C317.356 257.333 314.69 252.8 310.956 248C306.156 241.067 303.756 235.467 303.756 231.2C303.756 229.6 304.29 226.667 305.356 222.4C307.49 215.467 312.29 210.667 319.756 208C327.223 204.8 338.156 203.2 352.556 203.2H707.756Z" fill="#19242F"/>
</svg>
